<svg enable-background="new 0 0 74.9 62.3" height="62.3" viewBox="0 0 74.9 62.3" width="74.9" xmlns="http://www.w3.org/2000/svg"><g stroke-miterlimit="10" stroke-width="2"><path d="m19.7 23.5 35.2-17.8" fill="none" stroke="#00baff"/><path d="m14.8 61.3h9.8c2.2 0 4-1.8 4-4v-12c0-2.2-1.8-4-4-4h-9.8c-2.2 0-4 1.8-4 4v12c0 2.2 1.8 4 4 4z" fill="#fff" stroke="#7990a1"/><path d="m32.6 61.3h9.8c2.2 0 4-1.8 4-4v-20.9c0-2.2-1.8-4-4-4h-9.8c-2.2 0-4 1.8-4 4v20.8c0 2.3 1.8 4.1 4 4.1z" fill="#fff" stroke="#7990a1"/><path d="m50.4 61.3h9.8c2.2 0 4-1.8 4-4v-29.8c0-2.2-1.8-4-4-4h-9.8c-2.2 0-4 1.8-4 4v29.8c0 2.2 1.8 4 4 4z" fill="#fff" stroke="#7990a1"/><path d="m19.7 28c-2.5 0-4.5-2-4.5-4.5 0-2.5 2-4.5 4.5-4.5 2.5 0 4.5 2 4.5 4.5 0 2.5-2.1 4.5-4.5 4.5z" fill="#fff" stroke="#00baff"/><path d="m37.3 19.1c-2.5 0-4.5-2-4.5-4.5 0-2.5 2-4.5 4.5-4.5 2.5 0 4.5 2 4.5 4.5 0 2.5-2.1 4.5-4.5 4.5z" fill="#fff" stroke="#00baff"/><path d="m55.3 10c-2.5 0-4.5-2-4.5-4.5 0-2.5 2-4.5 4.5-4.5 2.5 0 4.5 2 4.5 4.5 0 2.5-2 4.5-4.5 4.5z" fill="#fff" stroke="#00baff"/></g><path d="m74.3 10.8c-.4-.5-1.2-.9-2.4-1.2v-2.9c.5.2.8.6.9 1.2l1.9-.2c-.1-.7-.4-1.3-.9-1.8-.5-.4-1.1-.7-1.9-.8v-.7h-1.1v.7c-.8.1-1.5.4-2 .9s-.8 1.2-.8 2 .2 1.5.7 2c.4.6 1.1 1 2.1 1.2v3.1c-.3-.1-.5-.3-.7-.6s-.4-.6-.4-1l-1.9.3c.1 1 .5 1.7 1 2.2s1.2.8 2.1.9v1.3h1.1v-1.4c1-.1 1.7-.5 2.2-1.1s.8-1.4.8-2.2c-.1-.7-.3-1.4-.7-1.9zm-3.5-1.6c-.3-.1-.6-.3-.7-.5s-.2-.5-.2-.7c0-.3.1-.5.3-.8.2-.2.4-.4.7-.5v2.5zm2 4.8c-.2.3-.5.4-.9.5v-2.9c.4.1.8.3.9.5.2.2.3.5.3.8 0 .5-.1.8-.3 1.1zm-60-8.3v-1.9c.3.1.5.4.6.8l1.2-.2c-.1-.4-.3-.8-.6-1.1s-.7-.5-1.2-.5v-.5h-.8v.5c-.6.1-1 .3-1.3.6-.3.4-.5.8-.5 1.3s.1 1 .4 1.3c.3.4.8.6 1.4.8v2c-.2-.1-.3-.2-.5-.4-.1-.2-.2-.4-.3-.7l-1.2.3c.1.6.3 1.1.7 1.5s.8.6 1.4.6v.9h.7v-.9c.6-.1 1.1-.3 1.5-.7s.5-.9.5-1.5c0-.5-.1-1-.4-1.3s-.9-.7-1.6-.9zm-.8-.2c-.2-.1-.4-.2-.5-.4-.1-.1-.2-.3-.2-.5s.1-.4.2-.5.3-.3.5-.3zm1.3 3.2c-.1.1-.3.3-.5.3v-1.9c.3.1.5.2.6.4s.2.3.2.6c0 .2-.1.4-.3.6zm-10.5 12.5v-1.9c.3.1.5.4.6.8l1.2-.2c-.1-.5-.3-.9-.6-1.2s-.7-.5-1.2-.5v-.5h-.8v.5c-.6.1-1 .3-1.3.6-.3.4-.5.8-.5 1.3s.1 1 .4 1.3c.3.4.8.6 1.4.8v2c-.2-.1-.3-.2-.5-.4-.1-.2-.2-.4-.3-.7l-1.2.4c.1.6.3 1.1.7 1.5s.8.6 1.4.6v.9h.7v-.9c.6-.1 1.1-.3 1.5-.7s.5-.9.5-1.5c0-.5-.1-1-.4-1.3s-.9-.7-1.6-.9zm-.8-.2c-.2-.1-.4-.2-.5-.4-.1-.1-.2-.3-.2-.5s.1-.4.2-.5.3-.3.5-.3zm1.3 3.2c-.2.2-.4.3-.6.3v-1.9c.3.1.6.2.7.4s.2.3.2.6c0 .2-.1.4-.3.6z" fill="#00baff"/></svg>