<svg enable-background="new 0 0 85.6 57.8" height="57.8" viewBox="0 0 85.6 57.8" width="85.6" xmlns="http://www.w3.org/2000/svg" xmlns:xlink="http://www.w3.org/1999/xlink"><clipPath id="a"><path d="m0 0h85.6v57.8h-85.6z"/></clipPath><path clip-path="url(#a)" d="m16.6 12.6v37.9c0 1.5 1.2 2.7 2.7 2.7h52.9c1.5 0 2.7-1.2 2.7-2.7v-37.9c0-1.5-1.2-2.7-2.7-2.7h-52.9c-1.5 0-2.7 1.2-2.7 2.7" fill="#fff"/><path clip-path="url(#a)" d="m16.6 12.6v37.9c0 1.5 1.2 2.7 2.7 2.7h52.9c1.5 0 2.7-1.2 2.7-2.7v-37.9c0-1.5-1.2-2.7-2.7-2.7h-52.9c-1.5 0-2.7 1.2-2.7 2.7z" fill="none" stroke="#7990a1" stroke-miterlimit="10" stroke-width="1.943"/><path clip-path="url(#a)" d="m10.9 53.9v2c0 .5.4.9.9.9h68c.5 0 .9-.4.9-.9v-2c0-.5-.4-.9-.9-.9h-68c-.5 0-.9.4-.9.9" fill="#fff"/><g fill="none" stroke-miterlimit="10"><path clip-path="url(#a)" d="m10.9 53.9v2c0 .5.4.9.9.9h68c.5 0 .9-.4.9-.9v-2c0-.5-.4-.9-.9-.9h-68c-.5 0-.9.4-.9.9z" stroke="#7990a1" stroke-width="2.031"/><path clip-path="url(#a)" d="m82.4 41v4.4" stroke="#00baff" stroke-linecap="round" stroke-linejoin="round" stroke-width="2"/><path clip-path="url(#a)" d="m84.6 43.2h-4.4" stroke="#00baff" stroke-linecap="round" stroke-linejoin="round" stroke-width="2"/><path clip-path="url(#a)" d="m61.2 1v4.3" stroke="#00baff" stroke-linecap="round" stroke-linejoin="round" stroke-width="2"/><path clip-path="url(#a)" d="m63.4 3.2h-4.3" stroke="#00baff" stroke-linecap="round" stroke-linejoin="round" stroke-width="2"/><path clip-path="url(#a)" d="m8.5 13.5v4.3" stroke="#00baff" stroke-linecap="round" stroke-linejoin="round" stroke-width="2"/><path clip-path="url(#a)" d="m10.7 15.7h-4.3" stroke="#00baff" stroke-linecap="round" stroke-linejoin="round" stroke-width="2"/><path clip-path="url(#a)" d="m3.2 28.3v4.3" stroke="#00baff" stroke-linecap="round" stroke-linejoin="round" stroke-width="2"/><path clip-path="url(#a)" d="m5.3 30.5h-4.3" stroke="#00baff" stroke-linecap="round" stroke-linejoin="round" stroke-width="2"/></g><path clip-path="url(#a)" d="m21.8 13.5c0 .6-.5 1-1 1-.6 0-1-.5-1-1 0-.6.5-1 1-1 .6 0 1 .4 1 1" fill="#7990a1"/><path clip-path="url(#a)" d="m25.4 13.5c0 .6-.5 1-1 1-.6 0-1-.5-1-1 0-.6.5-1 1-1 .6 0 1 .4 1 1" fill="#7990a1"/><path clip-path="url(#a)" d="m29 13.5c0 .6-.5 1-1 1s-1-.5-1-1c0-.6.5-1 1-1s1 .4 1 1" fill="#7990a1"/><path clip-path="url(#a)" d="m55.3 23.5h11.8" fill="#fff"/><path d="m55.3 23.5h11.8" style="fill:none;stroke:#7990a1;stroke-width:1.943;stroke-linecap:round;stroke-linejoin:round;stroke-miterlimit:10;clip-path:url(#a)"/><path clip-path="url(#a)" d="m55.3 27.5h11.8" fill="#fff"/><path d="m55.3 27.5h11.8" style="fill:none;stroke:#7990a1;stroke-width:1.943;stroke-linecap:round;stroke-linejoin:round;stroke-miterlimit:10;clip-path:url(#a)"/><path clip-path="url(#a)" d="m55.3 31.5h9.1" fill="#fff"/><path d="m55.3 31.5h9.1" style="fill:none;stroke:#7990a1;stroke-width:1.943;stroke-linecap:round;stroke-linejoin:round;stroke-miterlimit:10;clip-path:url(#a)"/><path clip-path="url(#a)" d="m23.4 35.2h13.9l4.3-4.1 4.2 4.1h4.9" fill="none" stroke="#00baff" stroke-miterlimit="10" stroke-width="2"/><circle clip-path="url(#a)" cx="31.7" cy="28.9" fill="none" r="2.7" stroke="#00baff" stroke-miterlimit="10" stroke-width="2"/><path clip-path="url(#a)" d="m48.4 21.5h-22.7c-1.2 0-2.3 1.1-2.3 2.3v15.9c0 1.2 1.1 2.3 2.3 2.3h22.7c1.2 0 2.3-1.1 2.3-2.3v-15.8c0-1.3-1.1-2.4-2.3-2.4z" fill="none" stroke="#00baff" stroke-miterlimit="10" stroke-width="2"/></svg>