<svg viewBox="0 0 77.53 65.39" xmlns="http://www.w3.org/2000/svg"><path d="m48.34 64.39h-29.06a7.07 7.07 0 0 1 -7-7v-37.65a7.07 7.07 0 0 1 7.05-7h29.01a7.07 7.07 0 0 1 7 7v37.6a7.07 7.07 0 0 1 -7 7.05zm-36.11-30.39h43.16m-21.58 0v30.39" fill="#fff" stroke="#7990a1" stroke-miterlimit="10" stroke-width="2"/><rect fill="#fff" height="31" rx="2.24" stroke="#00baff" stroke-miterlimit="10" stroke-width="2" width="33" x="43.53" y="21.69"/><rect fill="#00baff" height="4.16" rx="2.06" width="16.61" x="52.62" y="41.69"/><g stroke="#00baff" stroke-miterlimit="10" stroke-width="2"><rect fill="#fff" height="24.05" rx="2.73" width="32.06" x="1" y="1"/><path d="m1.92 17.03h15.43l4.97-4.81 4.97 4.81h4.35" fill="none"/><circle cx="10.78" cy="9.66" fill="none" r="3.21"/></g><path d="m51.89 31.76h18.05" fill="#fff" stroke="#7990a1" stroke-linecap="round" stroke-linejoin="round" stroke-width="1.94"/><path d="m51.89 36.77h18.05" fill="#fff" stroke="#7990a1" stroke-linecap="round" stroke-linejoin="round" stroke-width="1.94"/></svg>