<svg viewBox="0 0 63.4 61" xmlns="http://www.w3.org/2000/svg"><g stroke-miterlimit="10"><path d="m10.1 61c0-10.8 8.8-19.3 19.7-19.3s19.7 8.7 19.7 19.3m-19.7-19.3c5.1 0 9.1-4.2 9.1-9.5s-4-9.5-9.1-9.5-9.1 4.2-9.1 9.5 4.1 9.5 9.1 9.5zm9-6.1c10.8 0 19.7 8.7 19.7 19.3m-20.2-19.3c5.1 0 9.5-4.2 9.5-9.5s-4-9.5-9.1-9.5c-3.8 0-7.1 2.6-8.5 6.2m-9.6 13.1c-10.8 0-19.7 8.7-19.7 19.3m20.1-19.3c-5.1 0-9.5-4.2-9.5-9.5s4-9.5 9.1-9.5c3.8 0 7.1 2.6 8.5 6.2" fill="#fff" stroke="#7990a1" stroke-width="1.895"/><g stroke="#00baff" stroke-width="2"><path d="m60.1 15.4v4.5m2.3-2.2h-4.6m-11.9-10.4v4.6m2.2-2.3h-4.5m13 20.9v4.5m2.3-2.2h-4.6m-23.7-24.6v4.5m2.3-2.3h-4.5m25.8-9.4v4.5m2.3-2.2h-4.5" fill="none" stroke-linecap="round"/><path d="m40.9 43.7c-.7 0-1.4.3-1.9.8-1 1.1-1 2.8 0 3.9l4 4.2c.1.1.2.1.3.1s.2 0 .3-.1c1.3-1.4 2.7-2.8 4-4.2 1-1.1 1-2.8 0-3.9s-2.8-1.1-3.8 0l-.5.5-.5-.5c-.5-.5-1.2-.8-1.9-.8z" fill="#fff"/></g></g></svg>